;Layer: Drill PTH
;EasyEDA v6.2.46, 2019-10-20T21:32:37+02:00
;834a42cca3a14e42ac95e9e37959655c,75269f13ecf445cbab963e2f909655d1,10
;Gerber Generator version 0.2
M48
INCH,LZ,00.0000
;Holesize 1 = 0.012 INCH
T01C0.012
;Holesize 2 = 0.016 INCH
T02C0.016
;Holesize 3 = 0.020 INCH
T03C0.020
;Holesize 4 = 0.047 INCH
T04C0.047
%
G05
G90
T01
X+003525Y+008250
X+001723Y+008460
X+003173Y+008710
X+014475Y+006926
X+014475Y+007713
X+014475Y+005350
X+024325Y+010200
X+024075Y+007150
X+024425Y+004100
X+027075Y+007750
X+027075Y+004750
X+027075Y+010750
X+030075Y+010750
X+030075Y+007750
X+030075Y+004750
X+024075Y+004750
X+024075Y+010750
X+024075Y+007750
X+014725Y+003750
X+018775Y+003450
X+006525Y+004400
X+018775Y+005650
T02
X+002113Y+004153
X+002369Y+004546
X+002625Y+004153
X+002881Y+004546
X+003137Y+004153
T03
X+001217Y+004436G85X+001217Y+004042
X+004032Y+004436G85X+004032Y+004042
T04
X+020976Y+009589
X+019976Y+009589
X+018976Y+009589
X+017976Y+009589
M30
