G04 Layer: TopSolderMaskLayer*
G04 EasyEDA v6.2.46, 2019-10-20T21:32:37+02:00*
G04 834a42cca3a14e42ac95e9e37959655c,75269f13ecf445cbab963e2f909655d1,10*
G04 Gerber Generator version 0.2*
G04 Scale: 100 percent, Rotated: No, Reflected: No *
G04 Dimensions in inches *
G04 leading zeros omitted , absolute positions ,2 integer and 4 decimal *
%FSLAX24Y24*%
%MOIN*%
G90*
G70D02*

%ADD28C,0.043433*%
%ADD31C,0.031622*%
%ADD37C,0.078866*%

%LPD*%
G54D28*
G01X1217Y4475D02*
G01X1217Y4003D01*
G01X4032Y4475D02*
G01X4032Y4003D01*
G36*
G01X8742Y9051D02*
G01X8742Y9526D01*
G01X9610Y9526D01*
G01X9610Y9051D01*
G01X8742Y9051D01*
G37*
G36*
G01X8742Y8265D02*
G01X8742Y8738D01*
G01X9610Y8738D01*
G01X9610Y8265D01*
G01X8742Y8265D01*
G37*
G36*
G01X8742Y7478D02*
G01X8742Y7951D01*
G01X9610Y7951D01*
G01X9610Y7478D01*
G01X8742Y7478D01*
G37*
G36*
G01X8742Y6690D02*
G01X8742Y7163D01*
G01X9610Y7163D01*
G01X9610Y6690D01*
G01X8742Y6690D01*
G37*
G36*
G01X8742Y5901D02*
G01X8742Y6376D01*
G01X9610Y6376D01*
G01X9610Y5901D01*
G01X8742Y5901D01*
G37*
G36*
G01X8742Y5115D02*
G01X8742Y5588D01*
G01X9610Y5588D01*
G01X9610Y5115D01*
G01X8742Y5115D01*
G37*
G36*
G01X8742Y4328D02*
G01X8742Y4801D01*
G01X9610Y4801D01*
G01X9610Y4328D01*
G01X8742Y4328D01*
G37*
G36*
G01X8742Y3540D02*
G01X8742Y4013D01*
G01X9610Y4013D01*
G01X9610Y3540D01*
G01X8742Y3540D01*
G37*
G36*
G01X10121Y2555D02*
G01X10121Y3423D01*
G01X10594Y3423D01*
G01X10594Y2555D01*
G01X10121Y2555D01*
G37*
G36*
G01X10907Y2555D02*
G01X10907Y3423D01*
G01X11381Y3423D01*
G01X11381Y2555D01*
G01X10907Y2555D01*
G37*
G36*
G01X11693Y2555D02*
G01X11693Y3423D01*
G01X12168Y3423D01*
G01X12168Y2555D01*
G01X11693Y2555D01*
G37*
G36*
G01X12481Y2555D02*
G01X12481Y3423D01*
G01X12956Y3423D01*
G01X12956Y2555D01*
G01X12481Y2555D01*
G37*
G36*
G01X13268Y2555D02*
G01X13268Y3423D01*
G01X13743Y3423D01*
G01X13743Y2555D01*
G01X13268Y2555D01*
G37*
G36*
G01X14056Y2555D02*
G01X14056Y3423D01*
G01X14530Y3423D01*
G01X14530Y2555D01*
G01X14056Y2555D01*
G37*
G36*
G01X15042Y3538D02*
G01X15042Y4011D01*
G01X15909Y4011D01*
G01X15909Y3538D01*
G01X15042Y3538D01*
G37*
G36*
G01X15042Y4326D02*
G01X15042Y4801D01*
G01X15910Y4801D01*
G01X15910Y4326D01*
G01X15042Y4326D01*
G37*
G36*
G01X15043Y5113D02*
G01X15043Y5588D01*
G01X15910Y5588D01*
G01X15910Y5113D01*
G01X15043Y5113D01*
G37*
G36*
G01X15042Y5901D02*
G01X15042Y6375D01*
G01X15910Y6375D01*
G01X15910Y5901D01*
G01X15042Y5901D01*
G37*
G36*
G01X15042Y6688D02*
G01X15042Y7163D01*
G01X15910Y7163D01*
G01X15910Y6688D01*
G01X15042Y6688D01*
G37*
G36*
G01X15042Y7476D02*
G01X15042Y7950D01*
G01X15910Y7950D01*
G01X15910Y7476D01*
G01X15042Y7476D01*
G37*
G36*
G01X15042Y8263D02*
G01X15042Y8738D01*
G01X15910Y8738D01*
G01X15910Y8263D01*
G01X15042Y8263D01*
G37*
G36*
G01X15042Y9051D02*
G01X15042Y9525D01*
G01X15910Y9525D01*
G01X15910Y9051D01*
G01X15042Y9051D01*
G37*
G54D31*
G01X2113Y4153D03*
G01X2369Y4546D03*
G01X2625Y4153D03*
G01X2881Y4546D03*
G01X3137Y4153D03*
G36*
G01X1465Y7015D02*
G01X1465Y7944D01*
G01X1975Y7944D01*
G01X1975Y7015D01*
G01X1465Y7015D01*
G37*
G36*
G01X2375Y7015D02*
G01X2375Y7944D01*
G01X2884Y7944D01*
G01X2884Y7015D01*
G01X2375Y7015D01*
G37*
G36*
G01X3275Y7015D02*
G01X3275Y7944D01*
G01X3784Y7944D01*
G01X3784Y7015D01*
G01X3275Y7015D01*
G37*
G36*
G01X1900Y9455D02*
G01X1900Y10384D01*
G01X3359Y10384D01*
G01X3359Y9455D01*
G01X1900Y9455D01*
G37*
G36*
G01X5351Y9328D02*
G01X5351Y10471D01*
G01X6338Y10471D01*
G01X6338Y9328D01*
G01X5351Y9328D01*
G37*
G36*
G01X6711Y9328D02*
G01X6711Y10471D01*
G01X7698Y10471D01*
G01X7698Y9328D01*
G01X6711Y9328D01*
G37*
G36*
G01X5351Y7428D02*
G01X5351Y8571D01*
G01X6338Y8571D01*
G01X6338Y7428D01*
G01X5351Y7428D01*
G37*
G36*
G01X6711Y7428D02*
G01X6711Y8571D01*
G01X7698Y8571D01*
G01X7698Y7428D01*
G01X6711Y7428D01*
G37*
G36*
G01X17602Y7028D02*
G01X17602Y8171D01*
G01X18588Y8171D01*
G01X18588Y7028D01*
G01X17602Y7028D01*
G37*
G36*
G01X18961Y7028D02*
G01X18961Y8171D01*
G01X19947Y8171D01*
G01X19947Y7028D01*
G01X18961Y7028D01*
G37*
G36*
G01X17602Y5128D02*
G01X17602Y6271D01*
G01X18588Y6271D01*
G01X18588Y5128D01*
G01X17602Y5128D01*
G37*
G36*
G01X18961Y5128D02*
G01X18961Y6271D01*
G01X19947Y6271D01*
G01X19947Y5128D01*
G01X18961Y5128D01*
G37*
G36*
G01X6800Y3965D02*
G01X6800Y4834D01*
G01X7509Y4834D01*
G01X7509Y3965D01*
G01X6800Y3965D01*
G37*
G36*
G01X5540Y3965D02*
G01X5540Y4834D01*
G01X6250Y4834D01*
G01X6250Y3965D01*
G01X5540Y3965D01*
G37*
G36*
G01X20581Y9194D02*
G01X20581Y9984D01*
G01X21371Y9984D01*
G01X21371Y9194D01*
G01X20581Y9194D01*
G37*
G54D37*
G01X19976Y9589D03*
G01X18976Y9589D03*
G01X17976Y9589D03*
G36*
G01X24723Y9923D02*
G01X24723Y10396D01*
G01X25393Y10396D01*
G01X25393Y9923D01*
G01X24723Y9923D01*
G37*
G36*
G01X24723Y11103D02*
G01X24723Y11576D01*
G01X25393Y11576D01*
G01X25393Y11103D01*
G01X24723Y11103D01*
G37*
G36*
G01X22755Y11103D02*
G01X22755Y11576D01*
G01X23426Y11576D01*
G01X23426Y11103D01*
G01X22755Y11103D01*
G37*
G36*
G01X22755Y9923D02*
G01X22755Y10396D01*
G01X23426Y10396D01*
G01X23426Y9923D01*
G01X22755Y9923D01*
G37*
G36*
G01X27723Y9923D02*
G01X27723Y10396D01*
G01X28393Y10396D01*
G01X28393Y9923D01*
G01X27723Y9923D01*
G37*
G36*
G01X27723Y11103D02*
G01X27723Y11576D01*
G01X28393Y11576D01*
G01X28393Y11103D01*
G01X27723Y11103D01*
G37*
G36*
G01X25755Y11103D02*
G01X25755Y11576D01*
G01X26426Y11576D01*
G01X26426Y11103D01*
G01X25755Y11103D01*
G37*
G36*
G01X25755Y9923D02*
G01X25755Y10396D01*
G01X26426Y10396D01*
G01X26426Y9923D01*
G01X25755Y9923D01*
G37*
G36*
G01X30723Y9923D02*
G01X30723Y10396D01*
G01X31393Y10396D01*
G01X31393Y9923D01*
G01X30723Y9923D01*
G37*
G36*
G01X30723Y11103D02*
G01X30723Y11576D01*
G01X31393Y11576D01*
G01X31393Y11103D01*
G01X30723Y11103D01*
G37*
G36*
G01X28755Y11103D02*
G01X28755Y11576D01*
G01X29426Y11576D01*
G01X29426Y11103D01*
G01X28755Y11103D01*
G37*
G36*
G01X28755Y9923D02*
G01X28755Y10396D01*
G01X29426Y10396D01*
G01X29426Y9923D01*
G01X28755Y9923D01*
G37*
G36*
G01X24723Y6923D02*
G01X24723Y7396D01*
G01X25393Y7396D01*
G01X25393Y6923D01*
G01X24723Y6923D01*
G37*
G36*
G01X24723Y8103D02*
G01X24723Y8576D01*
G01X25393Y8576D01*
G01X25393Y8103D01*
G01X24723Y8103D01*
G37*
G36*
G01X22755Y8103D02*
G01X22755Y8576D01*
G01X23426Y8576D01*
G01X23426Y8103D01*
G01X22755Y8103D01*
G37*
G36*
G01X22755Y6923D02*
G01X22755Y7396D01*
G01X23426Y7396D01*
G01X23426Y6923D01*
G01X22755Y6923D01*
G37*
G36*
G01X27723Y3923D02*
G01X27723Y4396D01*
G01X28393Y4396D01*
G01X28393Y3923D01*
G01X27723Y3923D01*
G37*
G36*
G01X27723Y5103D02*
G01X27723Y5576D01*
G01X28393Y5576D01*
G01X28393Y5103D01*
G01X27723Y5103D01*
G37*
G36*
G01X25755Y5103D02*
G01X25755Y5576D01*
G01X26426Y5576D01*
G01X26426Y5103D01*
G01X25755Y5103D01*
G37*
G36*
G01X25755Y3923D02*
G01X25755Y4396D01*
G01X26426Y4396D01*
G01X26426Y3923D01*
G01X25755Y3923D01*
G37*
G36*
G01X24723Y3923D02*
G01X24723Y4396D01*
G01X25393Y4396D01*
G01X25393Y3923D01*
G01X24723Y3923D01*
G37*
G36*
G01X24723Y5103D02*
G01X24723Y5576D01*
G01X25393Y5576D01*
G01X25393Y5103D01*
G01X24723Y5103D01*
G37*
G36*
G01X22755Y5103D02*
G01X22755Y5576D01*
G01X23426Y5576D01*
G01X23426Y5103D01*
G01X22755Y5103D01*
G37*
G36*
G01X22755Y3923D02*
G01X22755Y4396D01*
G01X23426Y4396D01*
G01X23426Y3923D01*
G01X22755Y3923D01*
G37*
G36*
G01X30723Y6923D02*
G01X30723Y7396D01*
G01X31393Y7396D01*
G01X31393Y6923D01*
G01X30723Y6923D01*
G37*
G36*
G01X30723Y8103D02*
G01X30723Y8576D01*
G01X31393Y8576D01*
G01X31393Y8103D01*
G01X30723Y8103D01*
G37*
G36*
G01X28755Y8103D02*
G01X28755Y8576D01*
G01X29426Y8576D01*
G01X29426Y8103D01*
G01X28755Y8103D01*
G37*
G36*
G01X28755Y6923D02*
G01X28755Y7396D01*
G01X29426Y7396D01*
G01X29426Y6923D01*
G01X28755Y6923D01*
G37*
G36*
G01X27723Y6923D02*
G01X27723Y7396D01*
G01X28393Y7396D01*
G01X28393Y6923D01*
G01X27723Y6923D01*
G37*
G36*
G01X27723Y8103D02*
G01X27723Y8576D01*
G01X28393Y8576D01*
G01X28393Y8103D01*
G01X27723Y8103D01*
G37*
G36*
G01X25755Y8103D02*
G01X25755Y8576D01*
G01X26426Y8576D01*
G01X26426Y8103D01*
G01X25755Y8103D01*
G37*
G36*
G01X25755Y6923D02*
G01X25755Y7396D01*
G01X26426Y7396D01*
G01X26426Y6923D01*
G01X25755Y6923D01*
G37*
G36*
G01X30723Y3923D02*
G01X30723Y4396D01*
G01X31393Y4396D01*
G01X31393Y3923D01*
G01X30723Y3923D01*
G37*
G36*
G01X30723Y5103D02*
G01X30723Y5576D01*
G01X31393Y5576D01*
G01X31393Y5103D01*
G01X30723Y5103D01*
G37*
G36*
G01X28755Y5103D02*
G01X28755Y5576D01*
G01X29426Y5576D01*
G01X29426Y5103D01*
G01X28755Y5103D01*
G37*
G36*
G01X28755Y3923D02*
G01X28755Y4396D01*
G01X29426Y4396D01*
G01X29426Y3923D01*
G01X28755Y3923D01*
G37*
G36*
G01X19050Y3015D02*
G01X19050Y3884D01*
G01X19760Y3884D01*
G01X19760Y3015D01*
G01X19050Y3015D01*
G37*
G36*
G01X17789Y3015D02*
G01X17789Y3884D01*
G01X18500Y3884D01*
G01X18500Y3015D01*
G01X17789Y3015D01*
G37*
M00*
M02*
