G04 Layer: BottomSilkLayer*
G04 EasyEDA v6.2.46, 2019-10-20T21:32:37+02:00*
G04 834a42cca3a14e42ac95e9e37959655c,75269f13ecf445cbab963e2f909655d1,10*
G04 Gerber Generator version 0.2*
G04 Scale: 100 percent, Rotated: No, Reflected: No *
G04 Dimensions in inches *
G04 leading zeros omitted , absolute positions ,2 integer and 4 decimal *
%FSLAX24Y24*%
%MOIN*%
G90*
G70D02*

%ADD27C,0.005000*%

%LPD*%
G54D27*
G01X1570Y6254D02*
G01X1597Y6240D01*
G01X1625Y6213D01*
G01X1638Y6186D01*
G01X1638Y6131D01*
G01X1625Y6104D01*
G01X1597Y6077D01*
G01X1570Y6063D01*
G01X1529Y6050D01*
G01X1461Y6050D01*
G01X1420Y6063D01*
G01X1393Y6077D01*
G01X1365Y6104D01*
G01X1352Y6131D01*
G01X1352Y6186D01*
G01X1365Y6213D01*
G01X1393Y6240D01*
G01X1420Y6254D01*
G01X1461Y6254D01*
G01X1461Y6186D02*
G01X1461Y6254D01*
G01X1638Y6344D02*
G01X1352Y6344D01*
G01X1638Y6344D02*
G01X1352Y6535D01*
G01X1638Y6535D02*
G01X1352Y6535D01*
G01X1638Y6625D02*
G01X1352Y6625D01*
G01X1638Y6625D02*
G01X1638Y6720D01*
G01X1625Y6761D01*
G01X1597Y6789D01*
G01X1570Y6802D01*
G01X1529Y6816D01*
G01X1461Y6816D01*
G01X1420Y6802D01*
G01X1393Y6789D01*
G01X1365Y6761D01*
G01X1352Y6720D01*
G01X1352Y6625D01*
G01X3661Y6686D02*
G01X3661Y6822D01*
G01X3784Y6836D01*
G01X3770Y6822D01*
G01X3756Y6781D01*
G01X3756Y6740D01*
G01X3770Y6700D01*
G01X3797Y6672D01*
G01X3838Y6659D01*
G01X3865Y6659D01*
G01X3906Y6672D01*
G01X3934Y6700D01*
G01X3947Y6740D01*
G01X3947Y6781D01*
G01X3934Y6822D01*
G01X3920Y6836D01*
G01X3893Y6850D01*
G01X3661Y6569D02*
G01X3947Y6459D01*
G01X3661Y6350D02*
G01X3947Y6459D01*
G01X2461Y6822D02*
G01X2461Y6672D01*
G01X2570Y6754D01*
G01X2570Y6713D01*
G01X2584Y6686D01*
G01X2597Y6672D01*
G01X2638Y6659D01*
G01X2665Y6659D01*
G01X2706Y6672D01*
G01X2734Y6700D01*
G01X2747Y6740D01*
G01X2747Y6781D01*
G01X2734Y6822D01*
G01X2720Y6836D01*
G01X2693Y6850D01*
G01X2461Y6569D02*
G01X2747Y6459D01*
G01X2461Y6350D02*
G01X2747Y6459D01*
G01X2461Y6233D02*
G01X2461Y6083D01*
G01X2570Y6165D01*
G01X2570Y6124D01*
G01X2584Y6097D01*
G01X2597Y6083D01*
G01X2638Y6069D01*
G01X2665Y6069D01*
G01X2706Y6083D01*
G01X2734Y6110D01*
G01X2747Y6151D01*
G01X2747Y6192D01*
G01X2734Y6233D01*
G01X2720Y6247D01*
G01X2693Y6260D01*
G01X13925Y7849D02*
G01X13925Y7563D01*
G01X13753Y7849D02*
G01X13780Y7836D01*
G01X13807Y7809D01*
G01X13821Y7781D01*
G01X13835Y7740D01*
G01X13835Y7672D01*
G01X13821Y7631D01*
G01X13807Y7604D01*
G01X13780Y7577D01*
G01X13753Y7563D01*
G01X13698Y7563D01*
G01X13671Y7577D01*
G01X13644Y7604D01*
G01X13630Y7631D01*
G01X13616Y7672D01*
G01X13616Y7740D01*
G01X13630Y7781D01*
G01X13644Y7809D01*
G01X13671Y7836D01*
G01X13698Y7849D01*
G01X13753Y7849D01*
G01X13363Y7849D02*
G01X13499Y7849D01*
G01X13513Y7727D01*
G01X13499Y7740D01*
G01X13458Y7754D01*
G01X13417Y7754D01*
G01X13376Y7740D01*
G01X13349Y7713D01*
G01X13335Y7672D01*
G01X13335Y7645D01*
G01X13349Y7604D01*
G01X13376Y7577D01*
G01X13417Y7563D01*
G01X13458Y7563D01*
G01X13499Y7577D01*
G01X13513Y7590D01*
G01X13526Y7618D01*
G01X13925Y7063D02*
G01X13925Y6777D01*
G01X13753Y7063D02*
G01X13780Y7050D01*
G01X13807Y7022D01*
G01X13821Y6995D01*
G01X13835Y6954D01*
G01X13835Y6886D01*
G01X13821Y6845D01*
G01X13807Y6818D01*
G01X13780Y6790D01*
G01X13753Y6777D01*
G01X13698Y6777D01*
G01X13671Y6790D01*
G01X13644Y6818D01*
G01X13630Y6845D01*
G01X13616Y6886D01*
G01X13616Y6954D01*
G01X13630Y6995D01*
G01X13644Y7022D01*
G01X13671Y7050D01*
G01X13698Y7063D01*
G01X13753Y7063D01*
G01X13390Y7063D02*
G01X13526Y6872D01*
G01X13322Y6872D01*
G01X13390Y7063D02*
G01X13390Y6777D01*
G01X13925Y5513D02*
G01X13925Y5227D01*
G01X13753Y5513D02*
G01X13780Y5500D01*
G01X13807Y5472D01*
G01X13821Y5445D01*
G01X13835Y5404D01*
G01X13835Y5336D01*
G01X13821Y5295D01*
G01X13807Y5268D01*
G01X13780Y5240D01*
G01X13753Y5227D01*
G01X13698Y5227D01*
G01X13671Y5240D01*
G01X13644Y5268D01*
G01X13630Y5295D01*
G01X13616Y5336D01*
G01X13616Y5404D01*
G01X13630Y5445D01*
G01X13644Y5472D01*
G01X13671Y5500D01*
G01X13698Y5513D01*
G01X13753Y5513D01*
G01X13513Y5445D02*
G01X13513Y5459D01*
G01X13499Y5486D01*
G01X13485Y5500D01*
G01X13458Y5513D01*
G01X13404Y5513D01*
G01X13376Y5500D01*
G01X13363Y5486D01*
G01X13349Y5459D01*
G01X13349Y5431D01*
G01X13363Y5404D01*
G01X13390Y5363D01*
G01X13526Y5227D01*
G01X13335Y5227D01*
M00*
M02*
